<svg height="100%" id="svg19" style="fill-rule:evenodd;clip-rule:evenodd;stroke-linejoin:round;stroke-miterlimit:2;" version="1.1" viewBox="0 0 64 64" width="100%" xml:space="preserve" xmlns="http://www.w3.org/2000/svg" xmlns:cc="http://creativecommons.org/ns#" xmlns:dc="http://purl.org/dc/elements/1.1/" xmlns:inkscape="http://www.inkscape.org/namespaces/inkscape" xmlns:rdf="http://www.w3.org/1999/02/22-rdf-syntax-ns#" xmlns:sodipodi="http://sodipodi.sourceforge.net/DTD/sodipodi-0.dtd" xmlns:svg="http://www.w3.org/2000/svg"><defs id="defs23"></defs><path d="m 31.000197,53.981005 v 5.019591 c 0,0.307405 0.142,0.59847 0.384001,0.788428 0.243001,0.188937 0.559002,0.256341 0.858003,0.181788 14.238044,-3.553033 24.758076,-16.08516 24.758076,-30.970316 0,-13.797493 -11.202034,-24.9999131 -25.000077,-24.9999131 -13.798043,0 -25.0000775,11.2024201 -25.0000775,24.9999131 0,13.463534 10.6650335,24.45455 24.0000745,24.980509 z m 2.000006,-0.980429 c 0,-0.552512 -0.448001,-0.999833 -1.000003,-0.999833 -12.694039,0 -23.0000713,-10.305737 -23.0000713,-23.000247 0,-12.69451 10.3060323,-23.0002469 23.0000713,-23.0002469 12.694039,0 23.000071,10.3057369 23.000071,23.0002469 0,13.524811 -9.280028,24.961104 -22.000068,28.692862 0,0 0,-4.692782 0,-4.692782 z" id="path4" fill="#6930e2" opacity="1" original-fill="#9a70f6"></path><path d="M 31.000196,31.000496 V 21.000465 c 0,-0.552002 -0.448001,-1.000003 -1.000003,-1.000003 H 20.000162 c -0.552002,0 -1.000003,0.448001 -1.000003,1.000003 v 10.000031 c 0,0.552002 0.448001,1.000003 1.000003,1.000003 h 4.000012 c 0,0 0,5.000016 0,5.000016 0,0.552001 0.448002,1.000003 1.000003,1.000003 3.260011,0 6.000019,-3.08801 6.000019,-7.000022 z m -2.000006,0 c 0,2.300007 -1.245004,4.290013 -3.000009,4.846015 0,0 0,-4.846015 0,-4.846015 0,-0.552002 -0.448002,-1.000003 -1.000004,-1.000003 h -4.000012 c 0,0 0,-8.000025 0,-8.000025 0,0 8.000025,0 8.000025,0 0,0 0,9.000028 0,9.000028 z" id="path8" fill="#6930e2" opacity="1" original-fill="#9a70f6"></path><path d="M 45.00024,31.000496 V 21.000465 c 0,-0.552002 -0.448001,-1.000003 -1.000003,-1.000003 H 34.000206 c -0.552002,0 -1.000003,0.448001 -1.000003,1.000003 v 10.000031 c 0,0.552002 0.448001,1.000003 1.000003,1.000003 h 4.000012 c 0,0 0,5.000016 0,5.000016 0,0.552001 0.448002,1.000003 1.000004,1.000003 3.26001,0 6.000018,-3.08801 6.000018,-7.000022 z m -2.000006,0 c 0,2.300007 -1.245004,4.290013 -3.000009,4.846015 0,0 0,-4.846015 0,-4.846015 0,-0.552002 -0.448002,-1.000003 -1.000003,-1.000003 h -4.000013 c 0,0 0,-8.000025 0,-8.000025 0,0 8.000025,0 8.000025,0 0,0 0,9.000028 0,9.000028 z" id="path12" fill="#6930e2" opacity="1" original-fill="#9a70f6"></path></svg>